<svg width="25" height="24" viewBox="0 0 25 24" fill="none" xmlns="http://www.w3.org/2000/svg">
<g clip-path="url(#clip0_644_315)">
<path d="M12.0135 4.12207L10.938 3.01657C8.41351 0.421573 3.78451 1.31707 2.11351 4.57957C1.32901 6.11407 1.15201 8.32957 2.58451 11.1571C3.96451 13.8796 6.83551 17.1406 12.0135 20.6926C17.1915 17.1406 20.061 13.8796 21.4425 11.1571C22.875 8.32807 22.6995 6.11407 21.9135 4.57957C20.2425 1.31707 15.6135 0.420073 13.089 3.01507L12.0135 4.12207ZM12.0135 22.5001C-10.986 7.30207 4.93201 -4.55993 11.7495 1.71457C11.8395 1.79707 11.928 1.88257 12.0135 1.97107C12.0981 1.88265 12.1862 1.79759 12.2775 1.71607C19.0935 -4.56293 35.013 7.30057 12.0135 22.5001Z" fill="#111111"/>
</g>
<defs>
<clipPath id="clip0_644_315">
<rect width="24" height="24" fill="white" transform="translate(0.0136719)"/>
</clipPath>
</defs>
</svg>
