<svg width="32" height="32" viewBox="0 0 32 32" fill="none" xmlns="http://www.w3.org/2000/svg">
<path d="M9.368 23.046V18.446H13.89V17.226H9.368V13.602H14.296V12.382H8V23.046H9.368ZM15.96 23.046H17.312V17.96C17.312 16.852 17.766 15.946 19.218 15.946C19.468 15.946 19.734 15.954 19.876 15.976V14.75C19.7078 14.7247 19.5381 14.7114 19.368 14.71C18.204 14.71 17.586 15.35 17.344 15.844H17.304V14.836H15.96V23.046V23.046ZM21.57 12.86C21.57 13.336 21.954 13.71 22.43 13.71C22.5458 13.7156 22.6614 13.6977 22.7701 13.6572C22.8787 13.6168 22.9779 13.5547 23.0618 13.4748C23.1457 13.3948 23.2125 13.2987 23.2582 13.1921C23.3038 13.0856 23.3274 12.9709 23.3274 12.855C23.3274 12.7391 23.3038 12.6244 23.2582 12.5179C23.2125 12.4114 23.1457 12.3152 23.0618 12.2353C22.9779 12.1553 22.8787 12.0933 22.7701 12.0528C22.6614 12.0124 22.5458 11.9944 22.43 12C22.3168 11.999 22.2045 12.0205 22.0996 12.0633C21.9948 12.1062 21.8996 12.1695 21.8195 12.2495C21.7394 12.3296 21.6761 12.4248 21.6333 12.5297C21.5904 12.6345 21.5689 12.7468 21.57 12.86V12.86ZM21.758 23.046H23.102V14.836H21.758V23.046Z" fill="#111111"/>
<path d="M7 0C7.26522 0 7.51957 0.105357 7.70711 0.292893C7.89464 0.48043 8 0.734784 8 1V2H24V1C24 0.734784 24.1054 0.48043 24.2929 0.292893C24.4804 0.105357 24.7348 0 25 0C25.2652 0 25.5196 0.105357 25.7071 0.292893C25.8946 0.48043 26 0.734784 26 1V2H28C29.0609 2 30.0783 2.42143 30.8284 3.17157C31.5786 3.92172 32 4.93913 32 6V28C32 29.0609 31.5786 30.0783 30.8284 30.8284C30.0783 31.5786 29.0609 32 28 32H4C2.93913 32 1.92172 31.5786 1.17157 30.8284C0.421427 30.0783 0 29.0609 0 28V6C0 4.93913 0.421427 3.92172 1.17157 3.17157C1.92172 2.42143 2.93913 2 4 2H6V1C6 0.734784 6.10536 0.48043 6.29289 0.292893C6.48043 0.105357 6.73478 0 7 0V0ZM2 8V28C2 28.5304 2.21071 29.0391 2.58579 29.4142C2.96086 29.7893 3.46957 30 4 30H28C28.5304 30 29.0391 29.7893 29.4142 29.4142C29.7893 29.0391 30 28.5304 30 28V8H2Z" fill="#111111"/>
</svg>
