<svg width="18" height="18" viewBox="0 0 18 18" fill="none" xmlns="http://www.w3.org/2000/svg">
<path d="M9.49015 0.188851C9.42584 0.128988 9.34945 0.0814933 9.26534 0.049087C9.18123 0.0166808 9.09106 0 9 0C8.90894 0 8.81877 0.0166808 8.73466 0.049087C8.65055 0.0814933 8.57416 0.128988 8.50985 0.188851L0.202155 7.90264C0.137906 7.96245 0.0869827 8.03343 0.0522958 8.11152C0.0176088 8.18961 -0.000161376 8.27329 1.10422e-06 8.35776V17.3572C1.10422e-06 17.5277 0.0729404 17.6912 0.202773 17.8117C0.332606 17.9323 0.508697 18 0.692309 18H6.92308C7.10669 18 7.28278 17.9323 7.41261 17.8117C7.54245 17.6912 7.61539 17.5277 7.61539 17.3572V12.2147H10.3846V17.3572C10.3846 17.5277 10.4576 17.6912 10.5874 17.8117C10.7172 17.9323 10.8933 18 11.0769 18H17.3077C17.4913 18 17.6674 17.9323 17.7972 17.8117C17.9271 17.6912 18 17.5277 18 17.3572V8.35776C18.0002 8.27329 17.9824 8.18961 17.9477 8.11152C17.913 8.03343 17.8621 7.96245 17.7978 7.90264L15.9231 6.16318V1.9296C15.9231 1.75911 15.8501 1.59561 15.7203 1.47506C15.5905 1.35451 15.4144 1.28678 15.2308 1.28678H13.8462C13.6625 1.28678 13.4865 1.35451 13.3566 1.47506C13.2268 1.59561 13.1538 1.75911 13.1538 1.9296V3.59192L9.49015 0.188851ZM1.38462 16.7144V8.62388L9 1.55291L16.6154 8.62388V16.7144H11.7692V11.5718C11.7692 11.4014 11.6963 11.2379 11.5665 11.1173C11.4366 10.9967 11.2605 10.929 11.0769 10.929H6.92308C6.73947 10.929 6.56337 10.9967 6.43354 11.1173C6.30371 11.2379 6.23077 11.4014 6.23077 11.5718V16.7144H1.38462Z" fill="#828282"/>
</svg>
