<svg width="25" height="24" viewBox="0 0 25 24" fill="none" xmlns="http://www.w3.org/2000/svg">
<path d="M7.01367 18V7.052C7.0136 6.81932 7.09082 6.59322 7.23319 6.40919C7.37557 6.22515 7.57503 6.09363 7.80027 6.03526C8.0255 5.97689 8.26375 5.99499 8.47758 6.08671C8.69142 6.17843 8.86873 6.33858 8.98167 6.542L15.0457 17.458C15.1586 17.6614 15.3359 17.8216 15.5498 17.9133C15.7636 18.005 16.0018 18.0231 16.2271 17.9647C16.4523 17.9064 16.6518 17.7748 16.7942 17.5908C16.9365 17.4068 17.0137 17.1807 17.0137 16.948V6" stroke="#333333" stroke-width="2" stroke-linecap="round" stroke-linejoin="round"/>
<path d="M5.01367 10H19.0137" stroke="#333333" stroke-width="2" stroke-linecap="round" stroke-linejoin="round"/>
<path d="M5.01367 14H19.0137" stroke="#333333" stroke-width="2" stroke-linecap="round" stroke-linejoin="round"/>
</svg>
