<svg width="18" height="18" viewBox="0 0 24 24" fill="none" xmlns="http://www.w3.org/2000/svg">
<path d="M2.28748 8.49356C2.14864 8.63627 2.07214 8.82825 2.07477 9.02733C2.07741 9.22642 2.15897 9.41631 2.30155 9.55528L6.60701 13.7529L5.58983 19.6803L2.64523 8.84288M2.28748 8.49356L2.64459 8.84353C2.6448 8.84331 2.64502 8.84309 2.64523 8.84288M2.28748 8.49356C2.40233 8.37638 2.55233 8.29903 2.71639 8.27559M2.28748 8.49356L2.71639 8.27559M2.64523 8.84288C2.5992 8.89053 2.57385 8.95444 2.57473 9.02071C2.57561 9.08728 2.60288 9.15077 2.65056 9.19724L2.65059 9.19728L6.95606 13.3949L7.14427 13.5784L7.09981 13.8375L6.08262 19.7649L6.08251 19.7655C6.07458 19.8113 6.07965 19.8585 6.09714 19.9015C6.11464 19.9446 6.14385 19.9819 6.18147 20.0093C6.21909 20.0366 6.26362 20.0528 6.31 20.0561C6.35638 20.0594 6.40275 20.0497 6.44387 20.028L6.44465 20.0276L11.7673 17.2291L12 17.1068L12.2327 17.2291L17.5553 20.0276L17.5576 20.0287C17.6026 20.0527 17.6583 20.062 17.7128 20.0525L17.7135 20.0524C17.8504 20.0288 17.9406 19.8997 17.9174 19.7652L17.9173 19.7649L16.9002 13.8375L16.8557 13.5784L17.0439 13.3949L21.3485 9.19818C21.3486 9.19804 21.3487 9.1979 21.3489 9.19776C21.3888 9.15843 21.4138 9.10864 21.4214 9.05567L21.4222 9.05013L21.4222 9.05014C21.4423 8.91999 21.3522 8.79163 21.2108 8.77026C21.2105 8.77023 21.2103 8.7702 21.2101 8.77017L15.2609 7.90555L15.0007 7.86774L14.8844 7.63194L12.2242 2.23897L12.224 2.23853C12.2001 2.18991 12.1607 2.1505 12.112 2.12657L12.1115 2.12628C11.9897 2.06617 11.8382 2.11541 11.775 2.24045C11.7749 2.24076 11.7747 2.24107 11.7745 2.24139L9.11558 7.63194L8.99927 7.86774L8.73908 7.90555L2.7883 8.7704L2.7871 8.77057C2.73422 8.77812 2.68453 8.80305 2.64523 8.84288ZM2.71639 8.27559L8.66717 7.41075L2.71639 8.27559Z" fill="white" stroke="#EDB733"/>
</svg>
