<svg width="18" height="18" viewBox="0 0 18 18" fill="none" xmlns="http://www.w3.org/2000/svg">
<path d="M13.4582 7.69631L13.4596 7.19632C13.4417 7.19626 13.4262 7.19022 13.4153 7.18176C13.4047 7.17351 13.4 7.16426 13.3984 7.15724C13.3968 7.15041 13.3974 7.14298 13.4013 7.13526C13.4051 7.12762 13.4129 7.11853 13.426 7.11196C13.5041 7.07693 13.6919 6.97972 13.9289 6.84094L14.5981 6.44903L14.5744 6.43221L14.7951 6.26934C15.4758 5.76718 16.2927 5.02677 16.8247 4.06832C17.3634 3.09767 17.6077 1.9031 17.1286 0.550142C17.1276 0.543719 17.1285 0.53692 17.1322 0.529953C17.1369 0.520953 17.1474 0.510017 17.1651 0.503998C17.1831 0.497882 17.2032 0.498895 17.2199 0.506268C17.2334 0.512228 17.2417 0.52082 17.2461 0.52842C18.1254 3.01549 16.549 5.10501 14.8511 6.36885L14.4641 6.65688L14.021 6.91276C13.8342 7.02059 13.6553 7.11167 13.4885 7.18852C13.4739 7.19508 13.4631 7.19631 13.4582 7.19631V7.69631ZM13.4582 7.69631C13.538 7.69631 13.6196 7.67829 13.6966 7.64315C13.7278 7.62881 13.7593 7.61401 13.7912 7.59874L13.2509 6.7366C13.2184 6.72064 13.185 6.70641 13.1508 6.69399C13.0667 6.74773 12.9986 6.82271 12.9542 6.91148C12.8985 7.02278 12.8833 7.14916 12.9113 7.26991C12.9392 7.39065 13.0085 7.49861 13.1079 7.57608C13.2072 7.65355 13.3308 7.69594 13.4582 7.69631ZM13.9937 6.02161L13.9649 6.00124C13.6296 5.76412 13.2281 5.63575 12.8166 5.63211C12.405 5.62848 12.0013 5.74973 11.6617 5.98078L11.6613 5.98108C11.2283 6.27636 10.9298 6.72937 10.8367 7.24343C10.7436 7.75773 10.8649 8.28553 11.1707 8.71023C11.3218 8.92009 11.5132 9.09804 11.7336 9.23456C11.9539 9.37107 12.1991 9.46364 12.455 9.50758C12.7108 9.55152 12.9731 9.54607 13.2269 9.4915C13.4807 9.43692 13.7217 9.33416 13.936 9.18848L13.9369 9.18785C14.2447 8.9776 14.4871 8.68578 14.6342 8.34455C14.7814 8.00317 14.8265 7.62751 14.7638 7.26135L14.7252 7.0361L14.7435 7.06162L15.0646 7.50859L15.065 7.50915C15.0945 7.55014 15.1323 7.63719 15.1491 7.75428C15.1659 7.8717 15.1536 7.96361 15.1377 8.00788L15.1351 8.01502L15.1327 8.02224L14.2094 10.8481C14.1808 10.9245 14.116 11.0392 14.0219 11.1603C13.926 11.2837 13.8274 11.3781 13.7575 11.4263C13.7573 11.4265 13.757 11.4266 13.7568 11.4268L5.04336 17.3617C5.04325 17.3617 5.04315 17.3618 5.04304 17.3619C4.8848 17.469 4.76016 17.501 4.68666 17.5C4.65372 17.4995 4.63129 17.4927 4.61366 17.4835C4.59611 17.4743 4.56827 17.4548 4.53503 17.4091C4.53488 17.4089 4.53473 17.4087 4.53459 17.4085L0.574686 11.9058C0.511104 11.8173 0.487617 11.7105 0.506171 11.6081C0.52476 11.5055 0.585166 11.41 0.679662 11.3453C0.679758 11.3453 0.679853 11.3452 0.679948 11.3451L9.38583 5.4163C9.61157 5.27858 9.87204 5.20074 10.1407 5.19185L13.0868 5.17929C13.1434 5.18066 13.2412 5.20352 13.3505 5.25987C13.462 5.31739 13.5355 5.38398 13.5656 5.4257L13.9937 6.02161Z" stroke="#828282"/>
</svg>
