<svg width="16" height="20" viewBox="0 0 16 20" fill="#edb733"  xmlns="http://www.w3.org/2000/svg">
<path d="M8 10.9C9.44975 10.9 10.625 9.69117 10.625 8.2C10.625 6.70883 9.44975 5.5 8 5.5C6.55025 5.5 5.375 6.70883 5.375 8.2C5.375 9.69117 6.55025 10.9 8 10.9Z" stroke="#FEFAF1" stroke-width="2" stroke-linecap="round" stroke-linejoin="round"/>
<path d="M8 1C6.14348 1 4.36301 1.75857 3.05025 3.10883C1.7375 4.45909 1 6.29044 1 8.2C1 9.9028 1.35175 11.017 2.3125 12.25L8 19L13.6875 12.25C14.6483 11.017 15 9.9028 15 8.2C15 6.29044 14.2625 4.45909 12.9497 3.10883C11.637 1.75857 9.85652 1 8 1V1Z" stroke="#FEFAF1" stroke-width="2" stroke-linecap="round" stroke-linejoin="round"/>
</svg>
